<?xml version="1.0" encoding="UTF-8" standalone="no"?>
<svg
   xmlns:dc="http://purl.org/dc/elements/1.1/"
   xmlns:cc="http://creativecommons.org/ns#"
   xmlns:rdf="http://www.w3.org/1999/02/22-rdf-syntax-ns#"
   xmlns:svg="http://www.w3.org/2000/svg"
   xmlns="http://www.w3.org/2000/svg"
   xmlns:sodipodi="http://sodipodi.sourceforge.net/DTD/sodipodi-0.dtd"
   xmlns:inkscape="http://www.inkscape.org/namespaces/inkscape"
   width="20px"
   height="20px"
   viewBox="0 0 1280 1792"
   version="1.1"
   id="svg880"
   sodipodi:docname="user-former.svg"
   inkscape:version="1.0.1 (c497b03c, 2020-09-10)">
  <metadata
     id="metadata886">
    <rdf:RDF>
      <cc:Work
         rdf:about="">
        <dc:format>image/svg+xml</dc:format>
        <dc:type
           rdf:resource="http://purl.org/dc/dcmitype/StillImage" />
      </cc:Work>
    </rdf:RDF>
  </metadata>
  <defs
     id="defs884" />
  <sodipodi:namedview
     pagecolor="#ffffff"
     bordercolor="#666666"
     borderopacity="1"
     objecttolerance="10"
     gridtolerance="10"
     guidetolerance="10"
     inkscape:pageopacity="0"
     inkscape:pageshadow="2"
     inkscape:window-width="689"
     inkscape:window-height="480"
     id="namedview882"
     showgrid="false"
     inkscape:zoom="12.6"
     inkscape:cx="10"
     inkscape:cy="10"
     inkscape:window-x="0"
     inkscape:window-y="383"
     inkscape:window-maximized="0"
     inkscape:current-layer="svg880" />
  <path
     fill="#102110"
     d="m 1280,1399 q 0,109 -62.5,187 -62.5,78 -150.5,78 H 213 Q 125,1664 62.5,1586 0,1508 0,1399 0,1314 8.5,1238.5 17,1163 40,1086.5 63,1010 98.5,955.5 134,901 192.5,866.5 251,832 327,832 q 131,128 313,128 182,0 313,-128 76,0 134.5,34.5 58.5,34.5 94,89 35.5,54.5 58.5,131 23,76.5 31.5,152 8.5,75.5 8.5,160.5 z M 1024,512 Q 1024,671 911.5,783.5 799,896 640,896 481,896 368.5,783.5 256,671 256,512 256,353 368.5,240.5 481,128 640,128 799,128 911.5,240.5 1024,353 1024,512 Z"
     id="path878" />
</svg>
