<?xml version="1.0" encoding="UTF-8" standalone="no"?>
<svg
        xmlns:dc="http://purl.org/dc/elements/1.1/"
        xmlns:cc="http://creativecommons.org/ns#"
        xmlns:rdf="http://www.w3.org/1999/02/22-rdf-syntax-ns#"
        xmlns="http://www.w3.org/2000/svg"
        width="20.116304"
        height="20"
        viewBox="0 0 1544.9322 1792"
        version="1.1"
        id="svg921">
    <metadata
            id="metadata927">
        <rdf:RDF>
            <cc:Work
                    rdf:about="">
                <dc:format>image/svg+xml</dc:format>
                <dc:type
                        rdf:resource="http://purl.org/dc/dcmitype/StillImage"/>
                <dc:title></dc:title>
            </cc:Work>
        </rdf:RDF>
    </metadata>
    <defs
            id="defs925"/>
    <path
            fill="#7f3b4b"
            d="m 1339.1599,380 q 28,28 48,76 20,48 20,88 v 1152 q 0,40 -28,68 -28,28 -68,28 H -32.840131 q -40,0 -67.999999,-28 -28,-28 -28,-68 V 96 q 0,-40 28,-68 Q -72.840131,0 -32.840131,0 H 863.15987 q 40,0 88,20 48,20 76.00003,48 z M 895.15987,136 v 376 h 376.00003 q -10,-29 -22,-41 L 936.15987,158 q -12,-12 -41,-22 z M 1279.1599,1664 V 640 H 863.15987 q -40,0 -68,-28 -28,-28 -28,-68 V 128 H -0.84013105 V 1664 Z M 255.15987,800 q 0,-14 9,-23 9,-9 23,-9 h 704 q 14.00003,0 23.00003,9 9,9 9,23 v 64 q 0,14 -9,23 -9,9 -23.00003,9 h -704 q -14,0 -23,-9 -9,-9 -9,-23 z m 736,224 q 14.00003,0 23.00003,9 9,9 9,23 v 64 q 0,14 -9,23 -9,9 -23.00003,9 h -704 q -14,0 -23,-9 -9,-9 -9,-23 v -64 q 0,-14 9,-23 9,-9 23,-9 z m 0,256 q 14.00003,0 23.00003,9 9,9 9,23 v 64 q 0,14 -9,23 -9,9 -23.00003,9 h -704 q -14,0 -23,-9 -9,-9 -9,-23 v -64 q 0,-14 9,-23 9,-9 23,-9 z"
            id="path919"/>
    <path
            fill="#c38046"
            d="m 1255.5998,1633.9622 v -103.2703 q 0,-7.6094 -5.1634,-12.7729 -5.1636,-5.1636 -12.2295,-5.1636 h -104.3574 q -7.0659,0 -12.2294,5.1636 -5.1635,5.1635 -5.1635,12.7729 v 103.2703 q 0,7.6093 5.1635,12.773 5.1635,5.1634 12.2294,5.1634 h 104.3574 q 7.0659,0 12.2294,-5.1634 5.1635,-5.1637 5.1635,-12.773 z m -1.087,-203.2796 9.7835,-249.4795 q 0,-6.5223 -5.4353,-10.3271 -7.0659,-5.9788 -13.0447,-5.9788 h -119.5762 q -5.9788,0 -13.0447,5.9788 -5.4353,3.8048 -5.4353,11.4141 l 9.24,248.3925 q 0,5.4353 5.4353,8.9683 5.4353,3.5328 13.0447,3.5328 h 100.5527 q 7.6094,0 12.7729,-3.5328 5.1636,-3.533 5.7071,-8.9683 z m -7.6094,-507.65542 417.4298,765.28792 q 19.0234,34.2423 -1.0871,68.4846 -9.24,15.7622 -25.2741,25.0022 -16.0341,9.2399 -34.514,9.2399 H 768.59839 q -18.47996,0 -34.51405,-9.2399 -16.03409,-9.24 -25.27407,-25.0022 -20.11055,-34.2423 -1.08705,-68.4846 L 1125.153,923.02718 q 9.24,-16.84939 25.5459,-26.6329 16.3058,-9.78351 35.3293,-9.78351 19.0235,0 35.3294,9.78351 16.3058,9.78351 25.5458,26.6329 z"
            id="path977"
            style="stroke-width:0.543526"/>
</svg>
