<?xml version="1.0" encoding="UTF-8" standalone="no"?>
<svg
   xmlns:dc="http://purl.org/dc/elements/1.1/"
   xmlns:cc="http://creativecommons.org/ns#"
   xmlns:rdf="http://www.w3.org/1999/02/22-rdf-syntax-ns#"
   xmlns:svg="http://www.w3.org/2000/svg"
   xmlns="http://www.w3.org/2000/svg"
   xmlns:sodipodi="http://sodipodi.sourceforge.net/DTD/sodipodi-0.dtd"
   xmlns:inkscape="http://www.inkscape.org/namespaces/inkscape"
   width="20px"
   height="20px"
   viewBox="0 0 1280 1792"
   version="1.1"
   id="svg835"
   sodipodi:docname="user.svg"
   inkscape:version="1.0.1 (c497b03c, 2020-09-10)">
  <metadata
     id="metadata841">
    <rdf:RDF>
      <cc:Work
         rdf:about="">
        <dc:format>image/svg+xml</dc:format>
        <dc:type
           rdf:resource="http://purl.org/dc/dcmitype/StillImage" />
      </cc:Work>
    </rdf:RDF>
  </metadata>
  <defs
     id="defs839" />
  <sodipodi:namedview
     pagecolor="#ffffff"
     bordercolor="#666666"
     borderopacity="1"
     objecttolerance="10"
     gridtolerance="10"
     guidetolerance="10"
     inkscape:pageopacity="0"
     inkscape:pageshadow="2"
     inkscape:window-width="1694"
     inkscape:window-height="821"
     id="namedview837"
     showgrid="false"
     inkscape:zoom="33.4"
     inkscape:cx="10"
     inkscape:cy="10"
     inkscape:window-x="0"
     inkscape:window-y="383"
     inkscape:window-maximized="0"
     inkscape:current-layer="svg835" />
  <path
     fill="#70a753"
     d="m 1282.6826,1396.3174 q 0,109 -62.5,187 -62.5,78 -150.5,78 H 215.68263 q -88,0 -150.499995,-78 -62.5000003,-78 -62.5000003,-187 0,-85 8.5000003,-160.5 8.5,-75.5 31.5,-152 23,-76.5 58.499995,-131.00003 35.5,-54.5 94,-89 58.5,-34.5 134.5,-34.5 131,128 313,128 182,0 313,-128 75.99997,0 134.49997,34.5 58.5,34.5 94,89 35.5,54.50003 58.5,131.00003 23,76.5 31.5,152 8.5,75.5 8.5,160.5 z m -256,-887.00003 q 0,159 -112.49997,271.5 -112.5,112.5 -271.5,112.5 -159,0 -271.5,-112.5 -112.5,-112.5 -112.5,-271.5 0,-159 112.5,-271.5 112.5,-112.5 271.5,-112.5 159,0 271.5,112.5 112.49997,112.5 112.49997,271.5 z"
     id="path833" />
</svg>
